<svg width="15" height="15" viewBox="0 0 15 15" fill="none" xmlns="http://www.w3.org/2000/svg">
<path fill-rule="evenodd" clip-rule="evenodd" d="M6.1882 1.07986C5.71164 1.07986 5.30621 1.41103 5.1924 1.85738H9.01912C8.90532 1.41103 8.49988 1.07986 8.02332 1.07986H6.1882ZM10.1003 1.85741H11.5086C13.0023 1.85741 14.2186 3.08849 14.2186 4.60033C14.2186 4.60033 14.176 5.24035 14.1617 6.13162C14.1603 6.20217 14.1262 6.27128 14.07 6.31304C13.7278 6.56573 13.4149 6.77451 13.3864 6.78891C12.2057 7.58083 10.8336 8.13805 9.37192 8.41523C9.27661 8.43394 9.18272 8.38427 9.13435 8.29932C8.72465 7.58947 7.9593 7.12728 7.10576 7.12728C6.2579 7.12728 5.48545 7.58443 5.06365 8.295C5.01457 8.37851 4.92211 8.42675 4.82751 8.40875C3.3779 8.13086 2.00583 7.57435 0.832206 6.79611L0.14937 6.32096C0.0924673 6.28496 0.056903 6.22017 0.056903 6.14818C0.0355644 5.78101 0 4.60033 0 4.60033C0 3.08849 1.2163 1.85741 2.71 1.85741H4.11124C4.24638 0.813517 5.12127 0 6.1882 0H8.02332C9.09025 0 9.96513 0.813517 10.1003 1.85741ZM13.9768 7.68891L13.9483 7.70331C12.5115 8.66801 10.7831 9.30875 8.96934 9.57512C8.71327 9.61112 8.45721 9.44553 8.38608 9.18636C8.2296 8.59602 7.72458 8.20726 7.11999 8.20726H7.11288H7.09865C6.49406 8.20726 5.98904 8.59602 5.83256 9.18636C5.76143 9.44553 5.50537 9.61112 5.24931 9.57512C3.43552 9.30875 1.7071 8.66801 0.270296 7.70331C0.263183 7.69611 0.192054 7.65291 0.135151 7.68891C0.0711354 7.72491 0.0711354 7.8113 0.0711354 7.8113L0.120926 11.4829C0.120926 12.9948 1.33011 14.2186 2.82382 14.2186H11.3877C12.8814 14.2186 14.0906 12.9948 14.0906 11.4829L14.1475 7.8113C14.1475 7.8113 14.1475 7.72491 14.0835 7.68891C14.0479 7.66731 14.0052 7.67451 13.9768 7.68891ZM7.63916 10.7055C7.63916 11.0079 7.40444 11.2455 7.1057 11.2455C6.81407 11.2455 6.57223 11.0079 6.57223 10.7055V9.77683C6.57223 9.48166 6.81407 9.23689 7.1057 9.23689C7.40444 9.23689 7.63916 9.48166 7.63916 9.77683V10.7055Z" fill="#2DD3C5"/>
</svg>
