<svg width="20" height="20" viewBox="0 0 20 20" fill="none" xmlns="http://www.w3.org/2000/svg">
<path d="M16.1668 12.3791C15.4951 12.2347 14.9637 12.5465 14.4932 12.8189C14.0114 13.0995 13.0951 13.8428 12.57 13.6526C9.88108 12.5455 7.35213 10.192 6.25739 7.49234C6.06444 6.95595 6.80424 6.03389 7.08283 5.54635C7.35316 5.0744 7.65858 4.53801 7.51928 3.86128C7.3934 3.25316 5.76522 1.18138 5.18947 0.614841C4.80977 0.240611 4.42078 0.0347855 4.02147 0.00152064C2.5202 -0.0629299 0.843516 1.94024 0.549452 2.41946C-0.187255 3.44131 -0.183128 4.80101 0.561834 6.4497C2.35717 10.8781 9.14747 17.5612 13.5925 19.424C14.4128 19.8076 15.1629 19.9999 15.8366 19.9999C16.496 19.9999 17.0831 19.8159 17.5876 19.451C17.9684 19.2317 20.0536 17.4718 19.9989 15.9302C19.9659 15.5372 19.7606 15.1443 19.3912 14.7638C18.8289 14.1827 16.7704 12.506 16.1668 12.3791Z" fill="#2DD3C5"/>
</svg>
