<svg width="21" height="15" viewBox="0 0 21 15" fill="none" xmlns="http://www.w3.org/2000/svg">
<path d="M3.04286 6.08571C4.16174 6.08571 5.07143 5.17603 5.07143 4.05714C5.07143 2.93826 4.16174 2.02857 3.04286 2.02857C1.92397 2.02857 1.01429 2.93826 1.01429 4.05714C1.01429 5.17603 1.92397 6.08571 3.04286 6.08571ZM17.2429 6.08571C18.3617 6.08571 19.2714 5.17603 19.2714 4.05714C19.2714 2.93826 18.3617 2.02857 17.2429 2.02857C16.124 2.02857 15.2143 2.93826 15.2143 4.05714C15.2143 5.17603 16.124 6.08571 17.2429 6.08571ZM18.2571 7.1H16.2286C15.6707 7.1 15.1667 7.32505 14.7991 7.68955C16.0764 8.39005 16.9829 9.65473 17.1795 11.1571H19.2714C19.8325 11.1571 20.2857 10.7039 20.2857 10.1429V9.12857C20.2857 8.00969 19.376 7.1 18.2571 7.1ZM10.1429 7.1C12.1049 7.1 13.6929 5.51201 13.6929 3.55C13.6929 1.58799 12.1049 0 10.1429 0C8.18085 0 6.59286 1.58799 6.59286 3.55C6.59286 5.51201 8.18085 7.1 10.1429 7.1ZM12.5771 8.11429H12.3141C11.6548 8.43125 10.9226 8.62143 10.1429 8.62143C9.36312 8.62143 8.63411 8.43125 7.97165 8.11429H7.70857C5.69268 8.11429 4.05714 9.74982 4.05714 11.7657V12.6786C4.05714 13.5185 4.73862 14.2 5.57857 14.2H14.7071C15.5471 14.2 16.2286 13.5185 16.2286 12.6786V11.7657C16.2286 9.74982 14.593 8.11429 12.5771 8.11429ZM5.48665 7.68955C5.11897 7.32505 4.615 7.1 4.05714 7.1H2.02857C0.909688 7.1 0 8.00969 0 9.12857V10.1429C0 10.7039 0.453259 11.1571 1.01429 11.1571H3.10308C3.30277 9.65473 4.20929 8.39005 5.48665 7.68955Z" fill="#2DD3C5"/>
</svg>
