<svg width="16" height="12" viewBox="0 0 16 12" fill="none" xmlns="http://www.w3.org/2000/svg">
<path fill-rule="evenodd" clip-rule="evenodd" d="M10.4291 6.09834L15.8919 1.05003V11.0833L10.4291 6.09834ZM0.322764 0.350035C0.426505 0.23941 0.550169 0.151503 0.686575 0.0914198C0.822981 0.0313365 0.96941 0.000274169 1.11736 3.66912e-05H14.7745C14.9189 -0.00117555 15.0621 0.027662 15.1957 0.0848793C15.3294 0.142097 15.4509 0.226557 15.5532 0.333368C15.5547 0.335368 7.94595 7.21316 7.94595 7.21316C7.94595 7.21316 0.322446 0.350868 0.322764 0.350035ZM0 11.082V1.05003L5.46284 6.1L0 11.082ZM7.9237 8.39349L9.93243 6.55733C9.93243 6.55733 15.5208 11.6655 15.5195 11.6666C15.4175 11.7733 15.2963 11.8577 15.163 11.9149C15.0297 11.9721 14.8868 12.001 14.7427 12H1.10465C0.956838 11.9997 0.81055 11.9687 0.674298 11.9086C0.538046 11.8485 0.414552 11.7606 0.311004 11.65L5.95946 6.55733L7.9237 8.39349Z" fill="#2DD3C5"/>
</svg>
