<svg width="14" height="14" viewBox="0 0 14 14" fill="none" xmlns="http://www.w3.org/2000/svg">
<path d="M4.64434 13.1413V11.0009C4.64434 10.4545 5.09052 10.0116 5.6409 10.0116H7.65283C7.91713 10.0116 8.17061 10.1158 8.3575 10.3014C8.54439 10.4869 8.64939 10.7385 8.64939 11.0009V13.1413C8.64772 13.3685 8.73745 13.5869 8.89866 13.7481C9.05987 13.9093 9.27923 14 9.50806 14H10.8807C11.5217 14.0016 12.1371 13.75 12.591 13.3006C13.0449 12.8511 13.3 12.2409 13.3 11.6045V5.5068C13.3 4.99272 13.0704 4.50509 12.6732 4.17527L8.00382 0.473108C7.19156 -0.176007 6.02778 -0.155049 5.23977 0.522885L0.676909 4.17527C0.260918 4.49537 0.0122866 4.98445 0 5.5068V11.5983C0 12.9247 1.08317 14 2.41932 14H3.7606C4.23586 14 4.6221 13.6193 4.62554 13.1476L4.64434 13.1413Z" fill="#2DD3C5"/>
</svg>
