<svg width="13" height="15" viewBox="0 0 13 15" fill="none" xmlns="http://www.w3.org/2000/svg">
<path fill-rule="evenodd" clip-rule="evenodd" d="M3.41958 0H9.37791C11.574 0 12.7968 1.26546 12.7968 3.4338V10.7777C12.7968 12.9816 11.574 14.2186 9.37791 14.2186H3.41958C1.25835 14.2186 0 12.9816 0 10.7777V3.4338C0 1.26546 1.25835 0 3.41958 0ZM3.61151 3.31298V3.30587H5.73649C6.0429 3.30587 6.29172 3.5547 6.29172 3.85969C6.29172 4.17321 6.0429 4.42204 5.73649 4.42204H3.61151C3.3051 4.42204 3.05698 4.17321 3.05698 3.86751C3.05698 3.56181 3.3051 3.31298 3.61151 3.31298ZM3.61151 7.63548H9.18522C9.49092 7.63548 9.73975 7.38665 9.73975 7.08095C9.73975 6.77525 9.49092 6.52571 9.18522 6.52571H3.61151C3.3051 6.52571 3.05698 6.77525 3.05698 7.08095C3.05698 7.38665 3.3051 7.63548 3.61151 7.63548ZM3.61149 10.8844H9.1852C9.46886 10.856 9.68285 10.6135 9.68285 10.3299C9.68285 10.0384 9.46886 9.79668 9.1852 9.76825H3.61149C3.39821 9.74692 3.19204 9.84645 3.07829 10.0313C2.96454 10.209 2.96454 10.4436 3.07829 10.6285C3.19204 10.8062 3.39821 10.9128 3.61149 10.8844Z" fill="#2DD3C5"/>
</svg>
