<svg width="12" height="12" viewBox="0 0 12 12" fill="none" xmlns="http://www.w3.org/2000/svg">
<path fill-rule="evenodd" clip-rule="evenodd" d="M0.705508 2.92776C0.705508 2.92776 0.681498 2.29812 1.08112 1.48338C1.36302 0.907183 2.46043 0.588884 2.46043 0.588884C2.46043 0.588884 2.92975 0.469615 3.87305 1.38038C4.248 1.72745 4.48644 2.19719 4.54529 2.70471C4.57936 3.16784 3.59192 4.15528 3.59192 4.15528C3.66834 4.72222 3.90506 5.25557 4.27422 5.69259C4.66223 6.1441 5.33058 6.84808 5.68142 7.17723C5.98191 7.45913 6.31724 7.82701 6.76333 8.12285C7.64079 8.70447 7.85146 8.6518 7.85146 8.6518C7.85146 8.6518 9.10144 7.60473 9.4755 7.64113C9.75973 7.66978 10.1625 7.8572 10.6775 8.29632C11.0601 8.62159 11.3048 8.86788 11.4969 9.19625C11.5652 9.30963 11.6191 9.43114 11.6572 9.55793C11.6572 9.55793 11.7075 10.0776 10.9005 10.9047C10.0974 11.7264 8.9899 11.5111 8.9899 11.5111C8.9899 11.5111 8.35329 11.4166 7.31164 10.9264C6.15834 10.364 5.10754 9.61217 4.20296 8.70216C3.3588 7.83011 2.2521 6.4957 1.71385 5.56712C1.0362 4.4 0.705508 2.92776 0.705508 2.92776Z" fill="#2DD3C5"/>
</svg>
