<svg width="23" height="27" viewBox="0 0 23 27" fill="none" xmlns="http://www.w3.org/2000/svg">
<path fill-rule="evenodd" clip-rule="evenodd" d="M0 10.904C0 4.8739 5.03907 0 11.1343 0C17.2468 0 22.2859 4.8739 22.2859 10.904C22.2859 13.9427 21.1807 16.7637 19.3618 19.1548C17.3552 21.7923 14.8819 24.0903 12.098 25.8941C11.4608 26.311 10.8858 26.3424 10.1865 25.8941C7.38676 24.0903 4.91349 21.7923 2.92404 19.1548C1.10378 16.7637 0 13.9427 0 10.904ZM7.46467 11.2435C7.46467 13.2636 9.11307 14.8524 11.1343 14.8524C13.1568 14.8524 14.821 13.2636 14.821 11.2435C14.821 9.23916 13.1568 7.57302 11.1343 7.57302C9.11307 7.57302 7.46467 9.23916 7.46467 11.2435Z" fill="#2DD3C5"/>
</svg>
