<svg width="14" height="15" viewBox="0 0 14 15" fill="none" xmlns="http://www.w3.org/2000/svg">
<path fill-rule="evenodd" clip-rule="evenodd" d="M8.18146 14.4929C2.47237 15.0689 -0.084006 10.5074 0.489495 6.30845C0.170309 5.63328 0.00270435 4.88775 0 4.1311C0.029038 1.84322 1.83148 -0.0437944 3.84547 0.001375C4.47913 0.001375 4.56727 -0.0484558 5.80346 0.451848C11.4317 -0.200611 14.1851 4.6394 13.4954 8.78655C15.3808 12.5463 11.6214 16.4082 8.18146 14.4929ZM6.71297 4.35628C8.06428 4.40489 8.45941 5.31805 9.16047 5.63257C9.71116 5.69761 10.0077 5.01707 9.99945 4.95669C10.4329 3.1103 4.99973 1.27744 3.7065 4.80654C3.09359 7.02616 5.25692 7.86696 6.71297 8.11034C7.75419 8.21988 8.50917 8.62585 8.52058 9.24679C8.4791 9.8482 8.06427 10.4974 6.47652 10.3064C5.72049 10.2345 5.10136 8.99475 4.61497 8.86124C3.91495 8.32775 2.16334 10.4331 5.73398 11.6394C10.1249 13.0508 13.0962 7.01429 6.85299 6.30822C4.27067 5.78473 5.69664 4.30623 6.71297 4.35628Z" fill="#2DD3C5"/>
</svg>
