<svg width="16" height="14" viewBox="0 0 16 14" fill="none" xmlns="http://www.w3.org/2000/svg">
<path d="M15.1472 0.0327886C15.5961 -0.117214 15.8445 0.274515 15.8445 0.658616L13.336 12.756C13.336 13.14 12.7023 13.4225 12.3796 13.2423L8.63504 10.5142L6.22904 12.6867L6.49113 9.02588L6.49614 8.95593L6.50777 8.7934L6.50948 8.79181C6.57302 8.73234 8.40381 7.01924 10.2006 5.38665C10.457 5.15363 10.7136 4.92246 10.963 4.69765C12.2865 3.50515 13.4114 2.4915 13.2665 2.32753C13.0084 2.03515 4.41685 7.88957 4.41685 7.88957L4.37727 7.91883L4.20857 7.88918L0.445322 6.63752C0.122591 6.4574 -0.153204 6.2939 0.0971576 5.80321C0.347519 5.31253 15.1472 0.0327886 15.1472 0.0327886Z" fill="#2DD3C5"/>
</svg>
