<svg width="29" height="27" viewBox="0 0 29 27" fill="none" xmlns="http://www.w3.org/2000/svg">
<path fill-rule="evenodd" clip-rule="evenodd" d="M22.8649 8.2001H29C29 3.27414 26.0484 0.396484 21.0476 0.396484H7.95245C2.95156 0.396484 0 3.27414 0 8.13726V18.7557C0 23.6188 2.95156 26.4965 7.95245 26.4965H21.0476C26.0484 26.4965 29 23.6188 29 18.7557V18.3033H22.8649C20.0176 18.3033 17.7093 16.0529 17.7093 13.2768C17.7093 10.5008 20.0176 8.25036 22.8649 8.25036V8.2001ZM22.8648 10.3616H27.9173C28.5152 10.3616 28.9999 10.8342 28.9999 11.4171V15.0865C28.993 15.6666 28.5123 16.1352 27.9173 16.142H22.9808C21.5394 16.1609 20.2789 15.1987 19.9519 13.8298C19.7882 12.9801 20.0181 12.1032 20.5799 11.4343C21.1417 10.7653 21.9781 10.3727 22.8648 10.3616ZM23.084 14.2193H23.5609C24.1731 14.2193 24.6694 13.7355 24.6694 13.1386C24.6694 12.5418 24.1731 12.0579 23.5609 12.0579H23.084C22.7912 12.0546 22.5093 12.1656 22.301 12.3663C22.0927 12.567 21.9756 12.8406 21.9756 13.1261C21.9755 13.725 22.4698 14.2124 23.084 14.2193ZM6.86976 8.20011H15.0542C15.6664 8.20011 16.1626 7.71627 16.1626 7.11942C16.1626 6.52256 15.6664 6.03872 15.0542 6.03872H6.86976C6.26258 6.03868 5.76837 6.51491 5.76131 7.10685C5.76127 7.70577 6.2555 8.19322 6.86976 8.20011Z" fill="#2DD3C5"/>
</svg>
