<svg width="15" height="15" viewBox="0 0 15 15" fill="none" xmlns="http://www.w3.org/2000/svg">
<path fill-rule="evenodd" clip-rule="evenodd" d="M4.06675 5.82194C4.0409 5.47855 4.10829 5.13455 4.2619 4.82606C4.3087 4.70316 4.37375 4.58795 4.45487 4.48429C4.59968 4.28913 4.79317 4.13507 5.01615 4.03737C5.01615 4.03737 5.67887 3.97256 5.73622 4.06132C6.04333 4.59249 6.30026 5.15093 6.50369 5.72944C6.60513 6.1078 6.07254 6.53966 6.07254 6.53966C6.07254 6.53966 5.73512 6.71104 6.07254 7.13543C6.32396 7.45216 6.7518 8.0041 7.00873 8.20789C7.28013 8.42916 7.56886 8.62846 7.87215 8.80388C8.49958 9.15049 8.61646 9.11358 8.61646 9.11358C8.61646 9.11358 8.73224 9.16071 9.04761 8.73236C9.21632 8.50495 9.40047 8.23799 9.5758 8.18416C9.7787 8.12231 11.4173 9.05986 11.3522 8.99438C11.4669 9.10962 11.3765 9.47908 11.3765 9.47908C11.3765 9.47908 11.4118 9.89238 10.7877 10.3689C10.3764 10.6833 9.69598 10.7581 9.69598 10.7581C9.2676 10.7275 8.84656 10.6312 8.44775 10.4724C7.78282 10.2227 7.08039 10.0126 6.16846 9.18565C5.53496 8.61253 4.9846 7.95439 4.53319 7.23013C4.05351 6.40607 4.06675 5.82194 4.06675 5.82194ZM7.64388 14.6664C6.37245 14.6682 5.12233 14.3409 4.016 13.7167L0 15L1.31992 11.0927C0.48696 9.70291 0.138971 8.07759 0.330189 6.47013C0.521407 4.86267 1.24108 3.36341 2.37704 2.2061C3.51299 1.04878 5.00139 0.298447 6.61016 0.0720738C8.21893 -0.154299 9.85769 0.15601 11.2709 0.954624C12.6842 1.75324 13.7924 2.99527 14.423 4.4871C15.0536 5.97892 15.171 7.63669 14.757 9.20196C14.3429 10.7672 13.4207 12.152 12.134 13.1404C10.8474 14.1289 9.26862 14.6654 7.64388 14.6664ZM7.63174 1.2489C6.50178 1.24471 5.39256 1.55104 4.42601 2.1342C3.45946 2.71735 2.67302 3.55475 2.15319 4.55432C1.63335 5.55389 1.40024 6.67692 1.47948 7.79992C1.55873 8.92292 1.94727 10.0024 2.60237 10.9197L2.01683 12.6884L2.01904 12.6901L1.84812 13.189L2.84164 12.8951C2.84006 12.8932 2.8382 12.8916 2.83613 12.8902L4.19907 12.4629C4.99706 12.9999 5.9104 13.343 6.86567 13.4644C7.82093 13.5858 8.79147 13.4822 9.69924 13.1619C10.607 12.8417 11.4267 12.3137 12.0924 11.6204C12.7581 10.9271 13.2512 10.0879 13.5321 9.17016C13.813 8.25245 13.8739 7.28188 13.7098 6.33647C13.5458 5.39107 13.1613 4.4972 12.5874 3.72675C12.0135 2.9563 11.2662 2.33075 10.4055 1.9004C9.54479 1.47005 8.59474 1.2469 7.63174 1.2489Z" fill="#2DD3C5"/>
</svg>
