<svg width="515" height="438" viewBox="0 0 515 438" fill="none" xmlns="http://www.w3.org/2000/svg">
<path d="M228.197 200.215L278.869 190.739L338.193 197.331L414.408 308.563L413.584 393.017C343.137 433.803 248.795 439.982 164.341 433.803C161.869 433.803 159.397 433.391 156.926 433.391L115.316 339.873L156.514 254.595C170.521 226.169 196.887 205.982 228.197 200.215Z" fill="#D4D6DE"/>
<path d="M245.501 110.817C245.089 102.578 249.209 94.3386 249.209 86.0991C249.209 80.3315 245.501 74.5638 245.501 68.7962C246.325 55.6131 251.681 43.2541 257.036 30.8949L259.096 32.1308C272.279 19.7716 292.466 15.6519 309.769 20.5956C327.071 25.5393 341.902 37.8984 351.378 53.5534C364.561 75.7998 371.564 87.335 362.089 111.641C358.793 120.293 353.438 128.944 347.258 137.184C343.138 157.37 333.663 209.691 336.135 243.472H277.223C277.223 243.472 280.519 205.571 277.635 180.441C274.339 181.265 271.043 181.265 268.983 179.617C265.688 177.145 264.04 173.437 261.568 169.729C255.388 161.078 246.737 153.25 244.677 142.951C243.441 133.888 245.913 119.057 245.501 110.817Z" fill="#F3EFE8"/>
<g opacity="0.57">
<path opacity="0.57" d="M278.047 179.617C280.931 204.747 277.635 242.648 277.635 242.648H296.173C287.11 228.641 301.529 191.564 298.645 166.434C295.35 167.258 291.23 173.849 289.17 171.789L278.047 179.617Z" fill="#A9A194"/>
</g>
<g opacity="0.66">
<g opacity="0.66">
<path opacity="0.66" d="M245.501 110.819C245.089 102.579 249.209 94.3398 249.209 86.1003C249.209 80.3327 245.501 74.5651 245.501 68.7975C246.325 55.6144 251.681 43.2553 257.036 30.8961L259.096 32.132C269.395 22.2447 284.226 17.713 298.645 18.537C287.11 19.3609 275.575 23.8926 267.335 32.132L274.751 38.3116C269.395 50.2588 254.564 55.6144 253.74 68.7975C253.328 74.5651 264.04 84.4524 264.04 90.2201C264.04 98.4595 250.857 107.111 251.269 115.35C251.681 123.59 259.508 133.477 252.916 142.129C246.325 150.78 263.628 160.255 269.807 168.907C270.631 170.143 270.219 179.618 268.983 178.794C265.688 176.322 264.04 172.614 261.568 168.907C255.388 160.255 246.737 152.428 244.677 142.129C243.441 133.889 245.913 119.058 245.501 110.819Z" fill="#A9A194"/>
</g>
</g>
<path d="M268.572 9.06008C269.396 8.64811 270.22 8.23618 271.043 7.82421C282.991 1.64463 299.881 -0.00332975 313.065 0.408642C327.484 0.820614 341.491 4.52844 354.262 11.9439C360.853 15.6517 367.857 21.0073 371.153 28.0108C374.448 35.0143 370.741 40.7819 372.8 47.7854C374.036 52.3171 378.568 55.201 379.804 59.3207C381.04 63.4404 380.216 69.62 379.804 73.7397C379.392 83.627 377.332 93.5144 374.448 102.99C368.681 121.94 358.381 139.655 343.962 154.074C343.55 154.486 345.198 147.895 345.61 147.483C346.434 144.187 347.67 141.303 348.082 138.007C349.73 130.592 350.142 122.764 349.318 115.349C348.906 112.053 348.494 108.757 346.434 105.873C344.786 102.99 341.079 101.342 337.783 102.166C335.311 102.578 333.663 104.638 332.015 105.873C327.896 108.757 323.364 109.581 318.42 109.169C317.596 109.169 316.36 108.757 315.948 108.345C314.712 107.109 314.712 105.462 314.712 103.814C315.536 94.3383 316.36 84.8629 317.184 75.3876C318.008 67.1481 324.188 50.2573 309.769 51.0813C302.765 51.4932 296.174 54.789 289.582 56.4368C284.227 57.6728 278.459 58.0848 272.691 58.9087C256.212 61.3805 231.082 59.3206 222.431 42.0178C219.135 35.4263 219.547 27.5988 222.843 21.0072C227.374 26.7748 236.026 25.127 243.029 23.0671C247.561 21.4192 252.505 19.7714 256.624 17.7115C260.744 14.4157 264.864 11.5319 268.572 9.06008Z" fill="#404040"/>
<path d="M222.843 20.1834C227.375 25.951 236.026 24.3031 243.03 22.2432C247.561 20.5953 252.505 18.9474 256.625 16.8875C260.744 14.8277 264.452 11.5319 268.572 9.06008C269.396 8.64811 270.22 8.23618 271.044 7.82421C282.991 1.64463 299.882 -0.00332978 313.065 0.408642C327.484 0.820614 341.491 4.52844 354.262 11.9439C358.382 14.4158 362.913 17.2995 366.209 21.0072C363.325 18.1234 359.618 16.0637 356.322 14.0038C343.551 7.00027 329.544 2.88047 315.125 2.4685C301.942 2.05653 285.051 3.70449 273.104 9.88407C272.28 10.296 271.456 10.708 270.632 11.1199C266.512 13.5918 262.804 16.4755 258.685 18.9474C254.153 21.4192 249.621 23.0672 245.089 24.3031C238.086 26.3629 229.434 28.0108 224.903 22.2432C221.607 28.4228 221.195 36.6623 224.491 43.2538C225.315 45.3137 226.963 46.9615 228.199 48.6094C225.727 46.5496 223.667 44.0778 222.431 41.194C219.135 34.6024 219.547 26.3629 222.843 20.1834Z" fill="#2DD3C5"/>
<path d="M296.174 242.648L278.871 186.62L268.572 188.679L257.86 278.901L296.174 242.648Z" fill="white"/>
<path d="M339.019 190.739L392.988 201.039C419.354 205.982 441.6 224.109 451.9 248.827L512.048 392.193C520.699 412.38 505.868 435.039 483.621 435.039L267.748 424.327L257.861 393.841L281.755 402.081L416.882 390.546C428.005 389.722 433.773 376.951 427.181 367.887L336.547 243.06C336.959 242.648 320.481 198.155 339.019 190.739Z" fill="#F3EFE8"/>
<path d="M268.159 414.029C320.892 436.276 484.032 424.741 484.032 424.741C499.687 424.741 512.047 413.206 514.518 399.198C517.814 417.325 503.807 435.04 484.032 435.04L268.159 424.329L258.272 393.843L261.98 395.079C261.98 395.079 263.216 411.97 268.159 414.029Z" fill="#A9A194"/>
<path d="M339.018 190.739L392.986 201.039C419.353 205.982 441.599 224.109 451.898 248.827L493.508 337.401C460.962 334.106 427.18 367.887 403.698 349.76L336.546 243.06C336.958 242.648 320.479 198.155 339.018 190.739Z" fill="#D4D6DE"/>
<path d="M339.431 187.032L296.174 242.648L326.66 283.021L354.262 190.739L339.431 187.032Z" fill="white"/>
<path d="M247.561 128.531C250.033 120.292 255.389 127.295 264.452 126.471C269.808 126.059 280.519 119.056 284.639 122.352C286.699 123.588 287.935 125.648 289.171 127.707C289.994 128.531 290.818 129.355 292.054 129.767C295.35 131.003 298.646 130.591 301.53 128.119C304.002 126.059 307.709 122.764 308.945 119.88C311.005 115.348 310.593 111.229 311.417 106.285C311.829 102.165 313.477 98.4574 313.889 94.3377C315.537 85.2743 316.773 76.2109 318.421 67.1475L320.48 70.8552C319.656 68.3834 322.54 65.4997 325.012 65.9117C327.484 65.9117 329.956 68.3834 330.78 70.8552C331.604 73.3271 331.192 76.2108 330.78 78.6827C329.132 86.9221 325.836 95.1616 326.248 103.401C326.248 110.405 324.188 122.764 326.66 129.355C329.544 136.359 337.783 139.655 332.428 148.718C327.484 156.957 315.125 163.961 306.885 168.493C295.762 174.26 285.051 181.264 272.28 182.912C271.456 182.912 270.22 182.912 269.396 182.912C268.16 182.912 261.156 179.616 259.921 178.38C251.269 170.552 249.209 163.549 247.149 153.25C244.678 141.714 244.266 139.655 247.561 128.531Z" fill="#404040"/>
<path d="M287.109 140.891L273.514 136.771H261.567L251.68 140.891L256.623 152.426C257.859 155.31 261.155 157.37 264.451 157.37L265.687 152.014L270.63 152.426L273.102 157.37H275.162C278.87 157.37 282.165 155.31 282.989 151.602L287.109 140.891Z" fill="#E1D7C5"/>
<path d="M279.283 145.423L254.976 145.011C255.388 144.599 269.395 159.018 279.283 145.423Z" fill="#F9F7F3"/>
<path d="M421.825 354.704C415.234 355.116 409.466 353.468 404.111 349.348L396.695 293.732L421.825 354.704Z" fill="#BDC2D0"/>
<path d="M286.698 437.099H415.645C417.293 437.099 418.529 435.863 418.529 434.215V422.68C418.529 421.032 417.293 419.796 415.645 419.796H286.698V437.099Z" fill="#ECEEF4"/>
<path d="M69.176 437.099H316.771C324.598 437.099 330.366 429.271 327.482 421.856L269.806 271.898C268.158 267.366 264.039 264.482 259.095 264.482H11.4999C3.67239 264.482 -2.09521 272.31 0.788574 279.725L58.4646 429.683C60.1125 434.215 64.2323 437.099 69.176 437.099Z" fill="#F9F9FB"/>
<path d="M163.929 367.474C154.601 367.474 147.038 359.912 147.038 350.584C147.038 341.255 154.601 333.693 163.929 333.693C173.258 333.693 180.82 341.255 180.82 350.584C180.82 359.912 173.258 367.474 163.929 367.474Z" fill="#ECEEF4"/>
<g opacity="0.54">
<path opacity="0.54" d="M69.1758 437.099C64.6441 437.099 60.1124 434.215 58.4645 429.683L0.788452 279.725C-2.09535 272.31 3.26031 264.482 11.4998 264.482H74.1194C75.7673 271.486 77.0033 279.313 79.0631 286.317C84.0068 304.032 93.4821 320.511 106.665 333.282C123.144 349.349 144.567 359.648 164.341 371.595C184.116 383.13 203.891 397.549 214.19 418.56C217.074 424.327 219.134 430.919 219.957 437.511H69.1758V437.099Z" fill="#ECEEF4"/>
</g>
</svg>
