<svg width="110" height="297" viewBox="0 0 110 297" fill="none" xmlns="http://www.w3.org/2000/svg">
<ellipse cx="8.32232" cy="7.6228" rx="7.61016" ry="7.6228" fill="#8998C5" fill-opacity="0.15"/>
<ellipse cx="39.6775" cy="7.6228" rx="7.61016" ry="7.6228" fill="#8998C5" fill-opacity="0.15"/>
<ellipse cx="71.0336" cy="7.6228" rx="7.61015" ry="7.6228" fill="#8998C5" fill-opacity="0.15"/>
<ellipse cx="102.39" cy="7.6228" rx="7.61016" ry="7.6228" fill="#8998C5" fill-opacity="0.15"/>
<ellipse cx="8.32232" cy="42.842" rx="7.61016" ry="7.6228" fill="#8998C5" fill-opacity="0.15"/>
<ellipse cx="39.6775" cy="42.842" rx="7.61016" ry="7.6228" fill="#8998C5" fill-opacity="0.15"/>
<ellipse cx="71.0336" cy="42.842" rx="7.61015" ry="7.6228" fill="#8998C5" fill-opacity="0.15"/>
<ellipse cx="102.39" cy="42.842" rx="7.61016" ry="7.6228" fill="#8998C5" fill-opacity="0.15"/>
<ellipse cx="8.32232" cy="78.0613" rx="7.61016" ry="7.6228" fill="#8998C5" fill-opacity="0.15"/>
<ellipse cx="39.6775" cy="78.0613" rx="7.61016" ry="7.6228" fill="#8998C5" fill-opacity="0.15"/>
<ellipse cx="71.0336" cy="78.0613" rx="7.61015" ry="7.6228" fill="#8998C5" fill-opacity="0.15"/>
<ellipse cx="102.39" cy="78.0613" rx="7.61016" ry="7.6228" fill="#8998C5" fill-opacity="0.15"/>
<ellipse cx="8.32232" cy="113.281" rx="7.61016" ry="7.62281" fill="#8998C5" fill-opacity="0.15"/>
<ellipse cx="39.6775" cy="113.281" rx="7.61016" ry="7.62281" fill="#8998C5" fill-opacity="0.15"/>
<ellipse cx="71.0336" cy="113.281" rx="7.61015" ry="7.62281" fill="#8998C5" fill-opacity="0.15"/>
<ellipse cx="102.39" cy="113.281" rx="7.61016" ry="7.62281" fill="#8998C5" fill-opacity="0.15"/>
<ellipse cx="8.32232" cy="148.5" rx="7.61016" ry="7.6228" fill="#8998C5" fill-opacity="0.15"/>
<ellipse cx="39.6775" cy="148.5" rx="7.61016" ry="7.6228" fill="#8998C5" fill-opacity="0.15"/>
<ellipse cx="71.0336" cy="148.5" rx="7.61015" ry="7.6228" fill="#8998C5" fill-opacity="0.15"/>
<ellipse cx="102.39" cy="148.5" rx="7.61016" ry="7.6228" fill="#8998C5" fill-opacity="0.15"/>
<ellipse cx="8.32232" cy="183.719" rx="7.61016" ry="7.6228" fill="#8998C5" fill-opacity="0.15"/>
<ellipse cx="39.6775" cy="183.719" rx="7.61016" ry="7.6228" fill="#8998C5" fill-opacity="0.15"/>
<ellipse cx="71.0336" cy="183.719" rx="7.61015" ry="7.6228" fill="#8998C5" fill-opacity="0.15"/>
<ellipse cx="102.39" cy="183.719" rx="7.61016" ry="7.6228" fill="#8998C5" fill-opacity="0.15"/>
<ellipse cx="8.32232" cy="218.938" rx="7.61016" ry="7.62282" fill="#8998C5" fill-opacity="0.15"/>
<ellipse cx="39.6775" cy="218.938" rx="7.61016" ry="7.62282" fill="#8998C5" fill-opacity="0.15"/>
<ellipse cx="71.0336" cy="218.938" rx="7.61015" ry="7.62282" fill="#8998C5" fill-opacity="0.15"/>
<ellipse cx="102.39" cy="218.938" rx="7.61016" ry="7.62282" fill="#8998C5" fill-opacity="0.15"/>
<ellipse cx="8.32232" cy="254.158" rx="7.61016" ry="7.6228" fill="#8998C5" fill-opacity="0.15"/>
<ellipse cx="39.6775" cy="254.158" rx="7.61016" ry="7.6228" fill="#8998C5" fill-opacity="0.15"/>
<ellipse cx="71.0336" cy="254.158" rx="7.61015" ry="7.6228" fill="#8998C5" fill-opacity="0.15"/>
<ellipse cx="102.39" cy="254.158" rx="7.61016" ry="7.6228" fill="#8998C5" fill-opacity="0.15"/>
<ellipse cx="8.32232" cy="289.378" rx="7.61016" ry="7.6228" fill="#8998C5" fill-opacity="0.15"/>
<ellipse cx="39.6775" cy="289.378" rx="7.61016" ry="7.6228" fill="#8998C5" fill-opacity="0.15"/>
<ellipse cx="71.0336" cy="289.378" rx="7.61015" ry="7.6228" fill="#8998C5" fill-opacity="0.15"/>
<ellipse cx="102.39" cy="289.378" rx="7.61016" ry="7.6228" fill="#8998C5" fill-opacity="0.15"/>
</svg>
