<svg width="195" height="337" viewBox="0 0 195 337" fill="none" xmlns="http://www.w3.org/2000/svg">
<ellipse cx="8.6278" cy="8.64944" rx="8.6278" ry="8.64944" fill="#8998C5" fill-opacity="0.15"/>
<ellipse cx="44.1768" cy="8.64944" rx="8.6278" ry="8.64944" fill="#8998C5" fill-opacity="0.15"/>
<ellipse cx="79.7259" cy="8.64944" rx="8.6278" ry="8.64944" fill="#8998C5" fill-opacity="0.15"/>
<ellipse cx="115.274" cy="8.64944" rx="8.6278" ry="8.64944" fill="#8998C5" fill-opacity="0.15"/>
<ellipse cx="150.823" cy="8.64944" rx="8.6278" ry="8.64944" fill="#8998C5" fill-opacity="0.15"/>
<ellipse cx="186.372" cy="8.64944" rx="8.6278" ry="8.64944" fill="#8998C5" fill-opacity="0.15"/>
<ellipse cx="8.6278" cy="48.6123" rx="8.6278" ry="8.64944" fill="#8998C5" fill-opacity="0.15"/>
<ellipse cx="44.1768" cy="48.6123" rx="8.6278" ry="8.64944" fill="#8998C5" fill-opacity="0.15"/>
<ellipse cx="79.7259" cy="48.6123" rx="8.6278" ry="8.64944" fill="#8998C5" fill-opacity="0.15"/>
<ellipse cx="115.274" cy="48.6123" rx="8.6278" ry="8.64944" fill="#8998C5" fill-opacity="0.15"/>
<ellipse cx="150.823" cy="48.6123" rx="8.6278" ry="8.64944" fill="#8998C5" fill-opacity="0.15"/>
<ellipse cx="186.372" cy="48.6123" rx="8.6278" ry="8.64944" fill="#8998C5" fill-opacity="0.15"/>
<ellipse cx="8.6278" cy="88.5747" rx="8.6278" ry="8.64944" fill="#8998C5" fill-opacity="0.15"/>
<ellipse cx="44.1768" cy="88.5747" rx="8.6278" ry="8.64944" fill="#8998C5" fill-opacity="0.15"/>
<ellipse cx="79.7259" cy="88.5747" rx="8.6278" ry="8.64944" fill="#8998C5" fill-opacity="0.15"/>
<ellipse cx="115.274" cy="88.5747" rx="8.6278" ry="8.64944" fill="#8998C5" fill-opacity="0.15"/>
<ellipse cx="150.823" cy="88.5747" rx="8.6278" ry="8.64944" fill="#8998C5" fill-opacity="0.15"/>
<ellipse cx="186.372" cy="88.5747" rx="8.6278" ry="8.64944" fill="#8998C5" fill-opacity="0.15"/>
<ellipse cx="8.6278" cy="128.537" rx="8.6278" ry="8.64944" fill="#8998C5" fill-opacity="0.15"/>
<ellipse cx="44.1768" cy="128.537" rx="8.6278" ry="8.64944" fill="#8998C5" fill-opacity="0.15"/>
<ellipse cx="79.7259" cy="128.537" rx="8.6278" ry="8.64944" fill="#8998C5" fill-opacity="0.15"/>
<ellipse cx="115.274" cy="128.537" rx="8.6278" ry="8.64944" fill="#8998C5" fill-opacity="0.15"/>
<ellipse cx="150.823" cy="128.537" rx="8.6278" ry="8.64944" fill="#8998C5" fill-opacity="0.15"/>
<ellipse cx="186.372" cy="128.537" rx="8.6278" ry="8.64944" fill="#8998C5" fill-opacity="0.15"/>
<ellipse cx="8.6278" cy="168.5" rx="8.6278" ry="8.64944" fill="#8998C5" fill-opacity="0.15"/>
<ellipse cx="44.1768" cy="168.5" rx="8.6278" ry="8.64944" fill="#8998C5" fill-opacity="0.15"/>
<ellipse cx="79.7259" cy="168.5" rx="8.6278" ry="8.64944" fill="#8998C5" fill-opacity="0.15"/>
<ellipse cx="115.274" cy="168.5" rx="8.6278" ry="8.64944" fill="#8998C5" fill-opacity="0.15"/>
<ellipse cx="150.823" cy="168.5" rx="8.6278" ry="8.64944" fill="#8998C5" fill-opacity="0.15"/>
<ellipse cx="186.372" cy="168.5" rx="8.6278" ry="8.64944" fill="#8998C5" fill-opacity="0.15"/>
<ellipse cx="8.6278" cy="208.463" rx="8.6278" ry="8.64944" fill="#8998C5" fill-opacity="0.15"/>
<ellipse cx="44.1768" cy="208.463" rx="8.6278" ry="8.64944" fill="#8998C5" fill-opacity="0.15"/>
<ellipse cx="79.7259" cy="208.463" rx="8.6278" ry="8.64944" fill="#8998C5" fill-opacity="0.15"/>
<ellipse cx="115.274" cy="208.463" rx="8.6278" ry="8.64944" fill="#8998C5" fill-opacity="0.15"/>
<ellipse cx="150.823" cy="208.463" rx="8.6278" ry="8.64944" fill="#8998C5" fill-opacity="0.15"/>
<ellipse cx="186.372" cy="208.463" rx="8.6278" ry="8.64944" fill="#8998C5" fill-opacity="0.15"/>
<ellipse cx="8.6278" cy="248.425" rx="8.6278" ry="8.64944" fill="#8998C5" fill-opacity="0.15"/>
<ellipse cx="44.1768" cy="248.425" rx="8.6278" ry="8.64944" fill="#8998C5" fill-opacity="0.15"/>
<ellipse cx="79.7259" cy="248.425" rx="8.6278" ry="8.64944" fill="#8998C5" fill-opacity="0.15"/>
<ellipse cx="115.274" cy="248.425" rx="8.6278" ry="8.64944" fill="#8998C5" fill-opacity="0.15"/>
<ellipse cx="150.823" cy="248.425" rx="8.6278" ry="8.64944" fill="#8998C5" fill-opacity="0.15"/>
<ellipse cx="186.372" cy="248.425" rx="8.6278" ry="8.64944" fill="#8998C5" fill-opacity="0.15"/>
<ellipse cx="8.6278" cy="288.388" rx="8.6278" ry="8.64946" fill="#8998C5" fill-opacity="0.15"/>
<ellipse cx="44.1768" cy="288.388" rx="8.6278" ry="8.64946" fill="#8998C5" fill-opacity="0.15"/>
<ellipse cx="79.7259" cy="288.388" rx="8.6278" ry="8.64946" fill="#8998C5" fill-opacity="0.15"/>
<ellipse cx="115.274" cy="288.388" rx="8.6278" ry="8.64946" fill="#8998C5" fill-opacity="0.15"/>
<ellipse cx="150.823" cy="288.388" rx="8.6278" ry="8.64946" fill="#8998C5" fill-opacity="0.15"/>
<ellipse cx="186.372" cy="288.388" rx="8.6278" ry="8.64946" fill="#8998C5" fill-opacity="0.15"/>
<ellipse cx="8.6278" cy="328.351" rx="8.6278" ry="8.64946" fill="#8998C5" fill-opacity="0.15"/>
<ellipse cx="44.1768" cy="328.351" rx="8.6278" ry="8.64946" fill="#8998C5" fill-opacity="0.15"/>
<ellipse cx="79.7259" cy="328.351" rx="8.6278" ry="8.64946" fill="#8998C5" fill-opacity="0.15"/>
<ellipse cx="115.274" cy="328.351" rx="8.6278" ry="8.64946" fill="#8998C5" fill-opacity="0.15"/>
<ellipse cx="150.823" cy="328.351" rx="8.6278" ry="8.64946" fill="#8998C5" fill-opacity="0.15"/>
<ellipse cx="186.372" cy="328.351" rx="8.6278" ry="8.64946" fill="#8998C5" fill-opacity="0.15"/>
</svg>
