<svg width="221" height="23" viewBox="0 0 221 23" fill="none" xmlns="http://www.w3.org/2000/svg">
<path d="M13.976 15.648C14.184 15.776 14.344 15.944 14.456 16.152C14.584 16.36 14.648 16.576 14.648 16.8C14.648 17.088 14.552 17.352 14.36 17.592C14.12 17.88 13.752 18.024 13.256 18.024C12.872 18.024 12.52 17.936 12.2 17.76C11.048 17.104 10.472 15.768 10.472 13.752C10.472 13.176 10.28 12.72 9.896 12.384C9.528 12.048 8.992 11.88 8.288 11.88H3.8V16.536C3.8 16.968 3.68 17.32 3.44 17.592C3.216 17.864 2.912 18 2.528 18C2.064 18 1.656 17.864 1.304 17.592C0.968 17.304 0.8 16.952 0.8 16.536V2.664C0.8 2.248 0.936 1.904 1.208 1.632C1.496 1.344 1.848 1.2 2.264 1.2H9.176C10.008 1.2 10.792 1.424 11.528 1.872C12.264 2.32 12.848 2.936 13.28 3.72C13.728 4.504 13.952 5.384 13.952 6.36C13.952 7.16 13.736 7.944 13.304 8.712C12.872 9.464 12.312 10.064 11.624 10.512C12.632 11.216 13.184 12.16 13.28 13.344C13.328 13.6 13.352 13.848 13.352 14.088C13.416 14.584 13.48 14.944 13.544 15.168C13.608 15.376 13.752 15.536 13.976 15.648ZM9.056 9.408C9.344 9.408 9.624 9.272 9.896 9C10.168 8.728 10.392 8.368 10.568 7.92C10.744 7.456 10.832 6.96 10.832 6.432C10.832 5.984 10.744 5.576 10.568 5.208C10.392 4.824 10.168 4.52 9.896 4.296C9.624 4.072 9.344 3.96 9.056 3.96H3.8V9.408H9.056ZM28.4394 11.28C28.4234 11.664 28.2714 11.976 27.9834 12.216C27.6954 12.456 27.3594 12.576 26.9754 12.576H19.0554C19.2474 13.52 19.6874 14.264 20.3754 14.808C21.0634 15.336 21.8394 15.6 22.7034 15.6C23.3594 15.6 23.8714 15.544 24.2394 15.432C24.6074 15.304 24.8954 15.176 25.1034 15.048C25.3274 14.904 25.4794 14.808 25.5594 14.76C25.8474 14.616 26.1194 14.544 26.3754 14.544C26.7114 14.544 26.9994 14.664 27.2394 14.904C27.4794 15.144 27.5994 15.424 27.5994 15.744C27.5994 16.176 27.3754 16.568 26.9274 16.92C26.4794 17.288 25.8794 17.6 25.1274 17.856C24.3754 18.112 23.6154 18.24 22.8474 18.24C21.5034 18.24 20.3274 17.96 19.3194 17.4C18.3274 16.84 17.5594 16.072 17.0154 15.096C16.4714 14.104 16.1994 12.992 16.1994 11.76C16.1994 10.384 16.4874 9.176 17.0634 8.136C17.6394 7.096 18.3994 6.304 19.3434 5.76C20.2874 5.2 21.2954 4.92 22.3674 4.92C23.4234 4.92 24.4154 5.208 25.3434 5.784C26.2874 6.36 27.0394 7.136 27.5994 8.112C28.1594 9.088 28.4394 10.144 28.4394 11.28ZM22.3674 7.56C20.5114 7.56 19.4154 8.432 19.0794 10.176H25.3674V10.008C25.3034 9.336 24.9754 8.76 24.3834 8.28C23.7914 7.8 23.1194 7.56 22.3674 7.56ZM41.327 4.92C41.743 4.92 42.087 5.056 42.359 5.328C42.631 5.6 42.767 5.952 42.767 6.384V16.536C42.767 16.952 42.631 17.304 42.359 17.592C42.087 17.864 41.743 18 41.327 18C40.911 18 40.567 17.864 40.295 17.592C40.039 17.32 39.903 16.976 39.887 16.56C39.487 17.024 38.943 17.424 38.255 17.76C37.583 18.08 36.871 18.24 36.119 18.24C35.015 18.24 34.015 17.96 33.119 17.4C32.223 16.824 31.511 16.032 30.983 15.024C30.471 14.016 30.215 12.872 30.215 11.592C30.215 10.312 30.471 9.168 30.983 8.16C31.495 7.136 32.191 6.344 33.071 5.784C33.967 5.208 34.951 4.92 36.023 4.92C36.791 4.92 37.511 5.064 38.183 5.352C38.855 5.624 39.423 5.976 39.887 6.408V6.384C39.887 5.968 40.023 5.624 40.295 5.352C40.567 5.064 40.911 4.92 41.327 4.92ZM36.479 15.6C37.519 15.6 38.367 15.224 39.023 14.472C39.679 13.704 40.007 12.744 40.007 11.592C40.007 10.44 39.679 9.48 39.023 8.712C38.367 7.944 37.519 7.56 36.479 7.56C35.455 7.56 34.615 7.944 33.959 8.712C33.303 9.48 32.975 10.44 32.975 11.592C32.975 12.744 33.295 13.704 33.935 14.472C34.591 15.224 35.439 15.6 36.479 15.6ZM56.2801 0.24C56.6961 0.24 57.0401 0.375999 57.3121 0.647999C57.5841 0.919999 57.7201 1.272 57.7201 1.704V16.536C57.7201 16.952 57.5841 17.304 57.3121 17.592C57.0401 17.864 56.6961 18 56.2801 18C55.8641 18 55.5201 17.864 55.2481 17.592C54.9921 17.32 54.8561 16.976 54.8401 16.56C54.4401 17.024 53.8961 17.424 53.2081 17.76C52.5361 18.08 51.8241 18.24 51.0721 18.24C49.9681 18.24 48.9681 17.96 48.0721 17.4C47.1761 16.824 46.4641 16.032 45.9361 15.024C45.4241 14.016 45.1681 12.872 45.1681 11.592C45.1681 10.312 45.4241 9.168 45.9361 8.16C46.4481 7.136 47.1441 6.344 48.0241 5.784C48.9201 5.208 49.9041 4.92 50.9761 4.92C51.7441 4.92 52.4641 5.064 53.1361 5.352C53.8081 5.624 54.3761 5.976 54.8401 6.408V1.704C54.8401 1.288 54.9761 0.943999 55.2481 0.671999C55.5201 0.383999 55.8641 0.24 56.2801 0.24ZM51.4321 15.6C52.4721 15.6 53.3201 15.224 53.9761 14.472C54.6321 13.704 54.9601 12.744 54.9601 11.592C54.9601 10.44 54.6321 9.48 53.9761 8.712C53.3201 7.944 52.4721 7.56 51.4321 7.56C50.4081 7.56 49.5681 7.944 48.9121 8.712C48.2561 9.48 47.9281 10.44 47.9281 11.592C47.9281 12.744 48.2481 13.704 48.8881 14.472C49.5441 15.224 50.3921 15.6 51.4321 15.6ZM70.3693 5.16C70.7853 5.16 71.1293 5.304 71.4012 5.592C71.6733 5.864 71.8093 6.208 71.8093 6.624V16.824C71.8093 18.904 71.2493 20.416 70.1293 21.36C69.0093 22.32 67.5133 22.8 65.6413 22.8C65.0973 22.8 64.5373 22.752 63.9613 22.656C63.4013 22.576 62.9453 22.464 62.5933 22.32C61.8093 21.984 61.4173 21.52 61.4173 20.928C61.4173 20.816 61.4413 20.688 61.4893 20.544C61.5853 20.192 61.7453 19.92 61.9693 19.728C62.2093 19.552 62.4653 19.464 62.7373 19.464C62.8973 19.464 63.0493 19.488 63.1933 19.536C63.3053 19.584 63.4973 19.664 63.7693 19.776C64.0573 19.888 64.3533 19.976 64.6573 20.04C64.9773 20.12 65.3053 20.16 65.6413 20.16C66.7773 20.16 67.6093 19.912 68.1373 19.416C68.6813 18.936 68.9533 18.104 68.9533 16.92V16.68C68.1213 17.72 66.8253 18.24 65.0653 18.24C64.2333 18.24 63.4973 18.048 62.8573 17.664C62.2173 17.264 61.7213 16.72 61.3693 16.032C61.0173 15.328 60.8413 14.528 60.8413 13.632V6.624C60.8413 6.208 60.9773 5.864 61.2493 5.592C61.5213 5.304 61.8653 5.16 62.2812 5.16C62.6973 5.16 63.0413 5.304 63.3133 5.592C63.5853 5.864 63.7213 6.208 63.7213 6.624V12.768C63.7213 13.776 63.9373 14.504 64.3693 14.952C64.8173 15.384 65.4653 15.6 66.3133 15.6C67.1453 15.6 67.7853 15.36 68.2333 14.88C68.6973 14.384 68.9293 13.68 68.9293 12.768V6.624C68.9293 6.208 69.0653 5.864 69.3373 5.592C69.6093 5.304 69.9533 5.16 70.3693 5.16ZM89.7352 4.92C91.3192 4.92 92.4152 5.408 93.0232 6.384C93.6312 7.344 93.9352 8.68 93.9352 10.392V16.536C93.9352 16.952 93.7992 17.304 93.5272 17.592C93.2552 17.864 92.9112 18 92.4952 18C92.0792 18 91.7352 17.864 91.4632 17.592C91.1912 17.304 91.0552 16.952 91.0552 16.536V10.392C91.0552 9.512 90.8792 8.824 90.5272 8.328C90.1912 7.816 89.5912 7.56 88.7272 7.56C87.8312 7.56 87.1272 7.832 86.6152 8.376C86.1192 8.904 85.8712 9.576 85.8712 10.392V16.536C85.8712 16.952 85.7352 17.304 85.4632 17.592C85.1912 17.864 84.8472 18 84.4312 18C84.0152 18 83.6712 17.864 83.3992 17.592C83.1272 17.304 82.9912 16.952 82.9912 16.536V10.392C82.9912 9.512 82.8152 8.824 82.4632 8.328C82.1272 7.816 81.5272 7.56 80.6632 7.56C79.7672 7.56 79.0632 7.832 78.5512 8.376C78.0552 8.904 77.8072 9.576 77.8072 10.392V16.536C77.8072 16.952 77.6712 17.304 77.3992 17.592C77.1272 17.864 76.7832 18 76.3672 18C75.9512 18 75.6072 17.864 75.3352 17.592C75.0632 17.304 74.9272 16.952 74.9272 16.536V6.624C74.9272 6.208 75.0632 5.864 75.3352 5.592C75.6072 5.304 75.9512 5.16 76.3672 5.16C76.7832 5.16 77.1272 5.304 77.3992 5.592C77.6712 5.864 77.8072 6.208 77.8072 6.624V7.008C78.2392 6.432 78.7832 5.944 79.4392 5.544C80.1112 5.128 80.8552 4.92 81.6712 4.92C83.6872 4.92 84.9752 5.8 85.5352 7.56C85.9032 6.888 86.4552 6.28 87.1912 5.736C87.9432 5.192 88.7912 4.92 89.7352 4.92ZM107.444 4.92C107.86 4.92 108.204 5.056 108.476 5.328C108.748 5.6 108.884 5.952 108.884 6.384V16.536C108.884 16.952 108.748 17.304 108.476 17.592C108.204 17.864 107.86 18 107.444 18C107.028 18 106.684 17.864 106.412 17.592C106.156 17.32 106.02 16.976 106.004 16.56C105.604 17.024 105.06 17.424 104.372 17.76C103.7 18.08 102.988 18.24 102.236 18.24C101.132 18.24 100.132 17.96 99.2362 17.4C98.3402 16.824 97.6282 16.032 97.1002 15.024C96.5882 14.016 96.3322 12.872 96.3322 11.592C96.3322 10.312 96.5882 9.168 97.1002 8.16C97.6122 7.136 98.3082 6.344 99.1882 5.784C100.084 5.208 101.068 4.92 102.14 4.92C102.908 4.92 103.628 5.064 104.3 5.352C104.972 5.624 105.54 5.976 106.004 6.408V6.384C106.004 5.968 106.14 5.624 106.412 5.352C106.684 5.064 107.028 4.92 107.444 4.92ZM102.596 15.6C103.636 15.6 104.484 15.224 105.14 14.472C105.796 13.704 106.124 12.744 106.124 11.592C106.124 10.44 105.796 9.48 105.14 8.712C104.484 7.944 103.636 7.56 102.596 7.56C101.572 7.56 100.732 7.944 100.076 8.712C99.4202 9.48 99.0922 10.44 99.0922 11.592C99.0922 12.744 99.4122 13.704 100.052 14.472C100.708 15.224 101.556 15.6 102.596 15.6ZM122.397 0.24C122.813 0.24 123.157 0.375999 123.429 0.647999C123.701 0.919999 123.837 1.272 123.837 1.704V16.536C123.837 16.952 123.701 17.304 123.429 17.592C123.157 17.864 122.813 18 122.397 18C121.981 18 121.637 17.864 121.365 17.592C121.109 17.32 120.973 16.976 120.957 16.56C120.557 17.024 120.013 17.424 119.325 17.76C118.653 18.08 117.941 18.24 117.189 18.24C116.085 18.24 115.085 17.96 114.189 17.4C113.293 16.824 112.581 16.032 112.053 15.024C111.541 14.016 111.285 12.872 111.285 11.592C111.285 10.312 111.541 9.168 112.053 8.16C112.565 7.136 113.261 6.344 114.141 5.784C115.037 5.208 116.021 4.92 117.093 4.92C117.861 4.92 118.581 5.064 119.253 5.352C119.925 5.624 120.493 5.976 120.957 6.408V1.704C120.957 1.288 121.093 0.943999 121.365 0.671999C121.637 0.383999 121.981 0.24 122.397 0.24ZM117.549 15.6C118.589 15.6 119.437 15.224 120.093 14.472C120.749 13.704 121.077 12.744 121.077 11.592C121.077 10.44 120.749 9.48 120.093 8.712C119.437 7.944 118.589 7.56 117.549 7.56C116.525 7.56 115.685 7.944 115.029 8.712C114.373 9.48 114.045 10.44 114.045 11.592C114.045 12.744 114.365 13.704 115.005 14.472C115.661 15.224 116.509 15.6 117.549 15.6ZM138.478 11.28C138.462 11.664 138.31 11.976 138.022 12.216C137.734 12.456 137.398 12.576 137.014 12.576H129.094C129.286 13.52 129.726 14.264 130.414 14.808C131.102 15.336 131.878 15.6 132.742 15.6C133.398 15.6 133.91 15.544 134.278 15.432C134.646 15.304 134.934 15.176 135.142 15.048C135.366 14.904 135.518 14.808 135.598 14.76C135.886 14.616 136.158 14.544 136.414 14.544C136.75 14.544 137.038 14.664 137.278 14.904C137.518 15.144 137.638 15.424 137.638 15.744C137.638 16.176 137.414 16.568 136.966 16.92C136.518 17.288 135.918 17.6 135.166 17.856C134.414 18.112 133.654 18.24 132.886 18.24C131.542 18.24 130.366 17.96 129.358 17.4C128.366 16.84 127.598 16.072 127.054 15.096C126.51 14.104 126.238 12.992 126.238 11.76C126.238 10.384 126.526 9.176 127.102 8.136C127.678 7.096 128.438 6.304 129.382 5.76C130.326 5.2 131.334 4.92 132.406 4.92C133.462 4.92 134.454 5.208 135.382 5.784C136.326 6.36 137.078 7.136 137.638 8.112C138.198 9.088 138.478 10.144 138.478 11.28ZM132.406 7.56C130.55 7.56 129.454 8.432 129.118 10.176H135.406V10.008C135.342 9.336 135.014 8.76 134.422 8.28C133.83 7.8 133.158 7.56 132.406 7.56ZM146.472 4.92C147.832 4.92 148.928 5.136 149.76 5.568C150.592 5.984 151.008 6.544 151.008 7.248C151.008 7.6 150.904 7.912 150.696 8.184C150.488 8.44 150.216 8.568 149.88 8.568C149.624 8.568 149.416 8.536 149.256 8.472C149.096 8.392 148.936 8.296 148.776 8.184C148.632 8.056 148.488 7.952 148.344 7.872C148.184 7.792 147.944 7.72 147.624 7.656C147.32 7.592 147.072 7.56 146.88 7.56C145.68 7.56 144.736 7.936 144.048 8.688C143.376 9.424 143.04 10.392 143.04 11.592C143.04 12.744 143.384 13.704 144.072 14.472C144.76 15.224 145.64 15.6 146.712 15.6C147.496 15.6 148.08 15.504 148.464 15.312C148.56 15.264 148.688 15.184 148.848 15.072C149.024 14.944 149.184 14.848 149.328 14.784C149.472 14.72 149.648 14.688 149.856 14.688C150.256 14.688 150.568 14.816 150.792 15.072C151.032 15.328 151.152 15.656 151.152 16.056C151.152 16.44 150.928 16.8 150.48 17.136C150.032 17.472 149.44 17.744 148.704 17.952C147.968 18.144 147.184 18.24 146.352 18.24C145.12 18.24 144.032 17.952 143.088 17.376C142.16 16.8 141.44 16.008 140.928 15C140.416 13.976 140.16 12.84 140.16 11.592C140.16 10.296 140.424 9.144 140.952 8.136C141.496 7.128 142.248 6.344 143.208 5.784C144.168 5.208 145.256 4.92 146.472 4.92ZM165.568 11.592C165.568 12.872 165.28 14.024 164.704 15.048C164.128 16.056 163.336 16.84 162.328 17.4C161.336 17.96 160.24 18.24 159.04 18.24C157.824 18.24 156.72 17.96 155.728 17.4C154.736 16.84 153.952 16.056 153.376 15.048C152.8 14.024 152.512 12.872 152.512 11.592C152.512 10.312 152.8 9.168 153.376 8.16C153.952 7.136 154.736 6.344 155.728 5.784C156.72 5.208 157.824 4.92 159.04 4.92C160.24 4.92 161.336 5.208 162.328 5.784C163.336 6.344 164.128 7.136 164.704 8.16C165.28 9.168 165.568 10.312 165.568 11.592ZM162.688 11.592C162.688 10.808 162.52 10.112 162.184 9.504C161.864 8.88 161.424 8.4 160.864 8.064C160.32 7.728 159.712 7.56 159.04 7.56C158.368 7.56 157.752 7.728 157.192 8.064C156.648 8.4 156.208 8.88 155.872 9.504C155.552 10.112 155.392 10.808 155.392 11.592C155.392 12.376 155.552 13.072 155.872 13.68C156.208 14.288 156.648 14.76 157.192 15.096C157.752 15.432 158.368 15.6 159.04 15.6C159.712 15.6 160.32 15.432 160.864 15.096C161.424 14.76 161.864 14.288 162.184 13.68C162.52 13.072 162.688 12.376 162.688 11.592Z" fill="#2DD3C5"/>
<path d="M169.246 17.976C168.782 17.976 168.422 17.856 168.166 17.616C167.926 17.36 167.806 17 167.806 16.536V16.128C167.806 15.664 167.926 15.312 168.166 15.072C168.422 14.816 168.782 14.688 169.246 14.688H169.558C170.022 14.688 170.374 14.816 170.614 15.072C170.87 15.312 170.998 15.664 170.998 16.128V16.536C170.998 17 170.87 17.36 170.614 17.616C170.374 17.856 170.022 17.976 169.558 17.976H169.246ZM179.543 4.92C180.903 4.92 181.999 5.136 182.831 5.568C183.663 5.984 184.079 6.544 184.079 7.248C184.079 7.6 183.975 7.912 183.767 8.184C183.559 8.44 183.287 8.568 182.951 8.568C182.695 8.568 182.487 8.536 182.327 8.472C182.167 8.392 182.007 8.296 181.847 8.184C181.703 8.056 181.559 7.952 181.415 7.872C181.255 7.792 181.015 7.72 180.695 7.656C180.391 7.592 180.143 7.56 179.951 7.56C178.751 7.56 177.807 7.936 177.119 8.688C176.447 9.424 176.111 10.392 176.111 11.592C176.111 12.744 176.455 13.704 177.143 14.472C177.831 15.224 178.711 15.6 179.783 15.6C180.567 15.6 181.151 15.504 181.535 15.312C181.631 15.264 181.759 15.184 181.919 15.072C182.095 14.944 182.255 14.848 182.399 14.784C182.543 14.72 182.719 14.688 182.927 14.688C183.327 14.688 183.639 14.816 183.863 15.072C184.103 15.328 184.223 15.656 184.223 16.056C184.223 16.44 183.999 16.8 183.551 17.136C183.103 17.472 182.511 17.744 181.775 17.952C181.039 18.144 180.255 18.24 179.423 18.24C178.191 18.24 177.103 17.952 176.159 17.376C175.231 16.8 174.511 16.008 173.999 15C173.487 13.976 173.231 12.84 173.231 11.592C173.231 10.296 173.495 9.144 174.023 8.136C174.567 7.128 175.319 6.344 176.279 5.784C177.239 5.208 178.327 4.92 179.543 4.92ZM198.638 11.592C198.638 12.872 198.35 14.024 197.774 15.048C197.198 16.056 196.406 16.84 195.398 17.4C194.406 17.96 193.31 18.24 192.11 18.24C190.894 18.24 189.79 17.96 188.798 17.4C187.806 16.84 187.022 16.056 186.446 15.048C185.87 14.024 185.582 12.872 185.582 11.592C185.582 10.312 185.87 9.168 186.446 8.16C187.022 7.136 187.806 6.344 188.798 5.784C189.79 5.208 190.894 4.92 192.11 4.92C193.31 4.92 194.406 5.208 195.398 5.784C196.406 6.344 197.198 7.136 197.774 8.16C198.35 9.168 198.638 10.312 198.638 11.592ZM195.758 11.592C195.758 10.808 195.59 10.112 195.254 9.504C194.934 8.88 194.494 8.4 193.934 8.064C193.39 7.728 192.782 7.56 192.11 7.56C191.438 7.56 190.822 7.728 190.262 8.064C189.718 8.4 189.278 8.88 188.942 9.504C188.622 10.112 188.462 10.808 188.462 11.592C188.462 12.376 188.622 13.072 188.942 13.68C189.278 14.288 189.718 14.76 190.262 15.096C190.822 15.432 191.438 15.6 192.11 15.6C192.782 15.6 193.39 15.432 193.934 15.096C194.494 14.76 194.934 14.288 195.254 13.68C195.59 13.072 195.758 12.376 195.758 11.592ZM215.852 4.92C217.436 4.92 218.532 5.408 219.14 6.384C219.748 7.344 220.052 8.68 220.052 10.392V16.536C220.052 16.952 219.916 17.304 219.644 17.592C219.372 17.864 219.028 18 218.612 18C218.196 18 217.852 17.864 217.58 17.592C217.308 17.304 217.172 16.952 217.172 16.536V10.392C217.172 9.512 216.996 8.824 216.644 8.328C216.308 7.816 215.708 7.56 214.844 7.56C213.948 7.56 213.244 7.832 212.732 8.376C212.236 8.904 211.988 9.576 211.988 10.392V16.536C211.988 16.952 211.852 17.304 211.58 17.592C211.308 17.864 210.964 18 210.548 18C210.132 18 209.788 17.864 209.516 17.592C209.244 17.304 209.108 16.952 209.108 16.536V10.392C209.108 9.512 208.932 8.824 208.58 8.328C208.244 7.816 207.644 7.56 206.78 7.56C205.884 7.56 205.18 7.832 204.668 8.376C204.172 8.904 203.924 9.576 203.924 10.392V16.536C203.924 16.952 203.788 17.304 203.516 17.592C203.244 17.864 202.9 18 202.484 18C202.068 18 201.724 17.864 201.452 17.592C201.18 17.304 201.044 16.952 201.044 16.536V6.624C201.044 6.208 201.18 5.864 201.452 5.592C201.724 5.304 202.068 5.16 202.484 5.16C202.9 5.16 203.244 5.304 203.516 5.592C203.788 5.864 203.924 6.208 203.924 6.624V7.008C204.356 6.432 204.9 5.944 205.556 5.544C206.228 5.128 206.972 4.92 207.788 4.92C209.804 4.92 211.092 5.8 211.652 7.56C212.02 6.888 212.572 6.28 213.308 5.736C214.06 5.192 214.908 4.92 215.852 4.92Z" fill="#404040"/>
</svg>
